<svg id="Calque_1" data-name="Calque 1" xmlns="http://www.w3.org/2000/svg" viewBox="0 0 283 65"><defs><style>.cls-1{fill:#0076f6;}.cls-2{fill:#02c97b;}</style></defs><path class="cls-1" d="M84.4,47.3c-4.6,0-8.2-1.3-10.8-4s-3.9-6.4-3.9-11.1q0-7.35,3.6-11.4c2.4-2.8,5.7-4.2,10-4.2a12.28,12.28,0,0,1,9.3,3.6C94.9,22.6,96,25.9,96,30v3.4H76.1A9.88,9.88,0,0,0,78.4,40a8.3,8.3,0,0,0,6.2,2.3,24.61,24.61,0,0,0,4.9-.5,23.94,23.94,0,0,0,4.9-1.7v5.1a20.07,20.07,0,0,1-4.7,1.6A21.21,21.21,0,0,1,84.4,47.3Zm-1.2-26a6.18,6.18,0,0,0-4.8,1.9,9.61,9.61,0,0,0-2.2,5.6H89.7a7.85,7.85,0,0,0-1.8-5.6A6.16,6.16,0,0,0,83.2,21.3Z"/><path class="cls-1" d="M122.6,46.8h-6.3V28.5c0-2.3-.4-4-1.3-5.1a4.85,4.85,0,0,0-4-1.7,6.32,6.32,0,0,0-5.4,2.4c-1.1,1.6-1.7,4.2-1.7,7.9V46.8H97.6V17.1h4.9l.9,3.9h.3a8.27,8.27,0,0,1,3.6-3.3,11.36,11.36,0,0,1,5.2-1.2c4.6,0,7.6,1.6,9.1,4.7h.4a8.69,8.69,0,0,1,3.7-3.4,12,12,0,0,1,5.5-1.2c3.5,0,6.1.9,7.7,2.7s2.4,4.5,2.4,8.2V46.9H135V28.5c0-2.3-.4-4-1.3-5.1a4.85,4.85,0,0,0-4-1.7,6.4,6.4,0,0,0-5.4,2.3c-1.1,1.5-1.7,3.9-1.7,7V46.8Z"/><path class="cls-1" d="M159.7,47.3a10.51,10.51,0,0,1-8.8-4.1h-.4c.3,2.5.4,4,.4,4.6V60h-6.3V17.1h5.1c.1.6.4,1.9.9,4h.3c2-3,4.9-4.5,8.9-4.5a10.37,10.37,0,0,1,8.7,4c2.1,2.7,3.1,6.5,3.1,11.3s-1.1,8.6-3.2,11.4S163.4,47.3,159.7,47.3Zm-1.5-25.6c-2.5,0-4.3.7-5.5,2.2s-1.7,3.8-1.7,7v.9c0,3.6.6,6.2,1.7,7.9s3,2.4,5.6,2.4a5.5,5.5,0,0,0,5-2.7c1.2-1.8,1.8-4.3,1.8-7.7s-.6-5.8-1.8-7.6A6,6,0,0,0,158.2,21.7Z"/><path class="cls-1" d="M179.8,46.8h-6.3V5h6.3Z"/><path class="cls-1" d="M209.6,31.9c0,4.9-1.2,8.6-3.7,11.4s-6,4.1-10.4,4.1a14.07,14.07,0,0,1-7.4-1.9,12.81,12.81,0,0,1-4.9-5.4,19,19,0,0,1-1.7-8.2c0-4.8,1.2-8.6,3.7-11.3s6-4.1,10.4-4.1a13.25,13.25,0,0,1,10.2,4.1C208.4,23.5,209.6,27.2,209.6,31.9Zm-21.6,0c0,6.9,2.5,10.3,7.6,10.3s7.5-3.4,7.5-10.3-2.5-10.2-7.6-10.2a6.71,6.71,0,0,0-5.8,2.6A14.5,14.5,0,0,0,188,31.9Z"/><path class="cls-1" d="M211,9.2a3.57,3.57,0,0,1,.9-2.6,4.21,4.21,0,0,1,5.2,0,3.57,3.57,0,0,1,.9,2.6,3.33,3.33,0,0,1-.9,2.5,4.21,4.21,0,0,1-5.2,0A3.33,3.33,0,0,1,211,9.2Zm6.7,37.6h-6.3V17.1h6.3Z"/><path class="cls-1" d="M233.6,42.2a14.69,14.69,0,0,0,4.6-.7v4.8a12.54,12.54,0,0,1-2.7.8,18.7,18.7,0,0,1-3.4.3c-6,0-9-3.2-9-9.5v-16H219V19.1l4.3-2.3,2.1-6.3h3.9v6.6h8.5v4.8h-8.5V37.8a5,5,0,0,0,1.1,3.4A5.28,5.28,0,0,0,233.6,42.2Z"/><path class="cls-1" d="M239.6,9.2a3.57,3.57,0,0,1,.9-2.6,4.21,4.21,0,0,1,5.2,0,3.57,3.57,0,0,1,.9,2.6,3.33,3.33,0,0,1-.9,2.5,4.21,4.21,0,0,1-5.2,0A3.33,3.33,0,0,1,239.6,9.2Zm6.7,37.6H240V17.1h6.3Z"/><path class="cls-1" d="M261.8,47.3q-6.75,0-10.2-3.9c-2.3-2.6-3.5-6.4-3.5-11.3s1.2-8.8,3.7-11.5,6-4,10.6-4a21.14,21.14,0,0,1,8.5,1.7L269,23.4a20.65,20.65,0,0,0-6.6-1.6c-5.1,0-7.7,3.4-7.7,10.2,0,3.3.6,5.8,1.9,7.5a6.63,6.63,0,0,0,5.6,2.5,16.21,16.21,0,0,0,8-2.1v5.5a11.25,11.25,0,0,1-3.6,1.4A17.26,17.26,0,0,1,261.8,47.3Z"/><path class="cls-1" d="M272,43.4a3.54,3.54,0,0,1,4-4,4.08,4.08,0,0,1,3,1.1,4,4,0,0,1,1,3,4,4,0,0,1-1,3,4.64,4.64,0,0,1-6,0A4.45,4.45,0,0,1,272,43.4Z"/><path class="cls-2" d="M54.2,31.1a3.55,3.55,0,0,0-.4-.9,4.05,4.05,0,0,0-.5-.9c-.2-.3-.4-.5-.6-.8h0l-.3-.3-.4-.4a1.38,1.38,0,0,0-.4-.3l-.1-.1c-.1-.1-.2-.1-.3-.2a5.58,5.58,0,0,0-.8-.5c-.1-.1-.3-.1-.4-.2s-.1-.1-.2-.1-.1,0-.2-.1c-.3-.1-.5-.1-.8-.2L42,25.6,45.1,21a3.36,3.36,0,0,0,.5-1.4v-1c0-.2-.1-.4-.1-.6s-.1-.3-.1-.4-.1-.3-.2-.4h0c-.1-.1-.1-.2-.2-.4a.76.76,0,0,1-.2-.4,4.17,4.17,0,0,0-.6-.8,2.34,2.34,0,0,0-.7-.7l-.4-.3-.4-.3-.4-.3a.76.76,0,0,0-.4-.2c-.2-.1-.3-.2-.5-.3l-.3-.1H41c-.1,0-.3-.1-.4-.1h-.8a1.48,1.48,0,0,0-.7.1l-.6.3-.3.2-.2.2-5.1,6,.4.4,3.3,3.1,1.8,1.7a9,9,0,0,1,.9,1,10.47,10.47,0,0,1,.8,1.1,10.91,10.91,0,0,0,.6,1.1v.1l.2.5c.1.2.1.4.2.6s.1.2.1.3v.1h0v.6h0v.2h0V31a5.7,5.7,0,0,1,.1,1.3,5.7,5.7,0,0,1-.1,1.3,6.47,6.47,0,0,1-.4,1.3,10.91,10.91,0,0,1-.6,1.1l-.8,1.2L37,40.5l-.4.6,10.2,9.2a5.5,5.5,0,0,0,.9.7l.5.3.5.2a2.92,2.92,0,0,0,.9.2h1a1.88,1.88,0,0,0,.8-.2,4.35,4.35,0,0,0,.7-.4l.3-.3.3-.3.2-.4.2-.4c.1-.1.1-.3.2-.5a.9.9,0,0,0,.1-.5h0c0-.2.1-.3.1-.5V46.7h0v-.2a.37.37,0,0,0-.1-.3c0-.2-.1-.3-.1-.5l-.3-.9c0-.1,0-.1-.1-.2h0v-.1a4.05,4.05,0,0,0-.5-.9,5.55,5.55,0,0,0-.6-.8.1.1,0,0,0-.1-.1h0a3,3,0,0,0-.8-.8l-6.6-6.1h7.3a2.2,2.2,0,0,0,.8-.1h.1c.2-.1.4-.1.5-.2a2.18,2.18,0,0,0,.5-.4h0a2.09,2.09,0,0,0,.4-.6,1.45,1.45,0,0,0,.2-.7h0a2,2,0,0,0,.1-.8A3.08,3.08,0,0,0,54.2,31.1Z"/><path class="cls-1" d="M39.1,31h0v-.8h0c0-.2-.1-.3-.2-.5h0l-.2-.5a4.05,4.05,0,0,0-.5-.9,5.55,5.55,0,0,0-.6-.8,4.62,4.62,0,0,0-.7-.7L35,25.2l-3.3-3.1L19.8,11.2l-.3-.2-.3-.2-.2-.3-.3-.2-.3-.2-.3-.1-.3-.1-.3-.2-.2-.1-.2-.1-.2-.1-.2-.1-.2-.1-.2-.1L16.1,9H14a.9.9,0,0,0-.5.1l-1,.3a2.18,2.18,0,0,0-.8.5l-.6.6-.1.1h0c-.2.3-.3.5-.5.8a.75.75,0,0,0-.1.5.37.37,0,0,1-.1.3v.2h0v1h0a3.55,3.55,0,0,0,.2,1h0c.1.2.1.3.2.5s.2.3.3.5a7,7,0,0,0,1.6,1.9l4.4,4,2.8,2.6-6.4-.5-3.9-.3H8.2a5,5,0,0,0-1.2.2H6.9a10.37,10.37,0,0,0-1,.4h0a6.07,6.07,0,0,0-1,.7,6,6,0,0,0-.8.8h0c-.2.3-.4.7-.6,1a2.66,2.66,0,0,0-.3,1.2h0a.75.75,0,0,1-.1.5v.8A5.85,5.85,0,0,0,3.3,30h0a6.12,6.12,0,0,0,.5,1.2,8.68,8.68,0,0,0,1.7,2.2,9.74,9.74,0,0,0,2.4,1.5,5.73,5.73,0,0,0,1.4.4h.1c.2,0,.4.1.6.1H21.9l-6.4,7.7a6.73,6.73,0,0,0-.7,1.1h0l-.3.6h0a1.42,1.42,0,0,0-.2.6,6.37,6.37,0,0,0-.2.7c0,.2-.1.4-.1.6v.1h0v1.4a6.11,6.11,0,0,0,.3,1.3v.1h0c0,.2.1.3.2.5a3.55,3.55,0,0,0,.4.9,8.34,8.34,0,0,0,.8,1.2h0l.2.2.3.3a1.38,1.38,0,0,0,.4.3l.2.2h0l.6.4.6.4.6.3.6.2,1.3.3h1.7l.3-.1.3-.1.3-.1.3-.1.3-.1.3-.1.3-.1.3-.2.3-.2.3-.2.3-.2.3-.3.2-.3.2-.3.2-.3h0l8.9-13.2,2.5-3.7.8-1.2a2.51,2.51,0,0,0,.4-.7,2.35,2.35,0,0,0,.2-.8,2.77,2.77,0,0,0,.1-.9C39.1,31.6,39.1,31.3,39.1,31Z"/></svg>